<svg xmlns="http://www.w3.org/2000/svg" xmlns:xlink="http://www.w3.org/1999/xlink" viewBox="0 0 99.96 150.73"><defs><radialGradient id="radial-gradient" cx="49.98" cy="102.76" r="49.98" gradientTransform="matrix(1, 0, 0, -1, 0, 152.74)" gradientUnits="userSpaceOnUse"><stop offset="0" stop-color="#d2edf1"/><stop offset="1" stop-color="#00b6c9"/></radialGradient></defs><title>Asset 1</title><g id="Layer_2" data-name="Layer 2"><g id="Layer_1-2" data-name="Layer 1"><path d="M43.89,32.34,50,47l6.09-14.7L50,17.64ZM33.2,41.81,47.9,47.9,41.81,33.2l-14.7-6.09ZM36.59,14.7l6.09,14.7,6.09-14.7L42.68,0ZM25.9,24.17l14.7,6.09-6.09-14.7L19.81,9.47ZM15.56,34.5l14.7,6.09-6.09-14.7L9.47,19.8ZM0,42.67l14.7,6.09,14.7-6.09L14.7,36.58ZM65.45,15.56l-6.09,14.7,14.7-6.09,6.09-14.7ZM51.2,14.7l6.09,14.7,6.09-14.7L57.29,0ZM43.89,67.61,50,82.31l6.09-14.7L50,52.91Zm14.26-.86,14.7,6.09-6.09-14.7-14.7-6.09ZM51.2,85.25,57.29,100l6.09-14.7-6.09-14.7Zm14.25-.86,14.7,6.09-6.09-14.7-14.7-6.09ZM75.79,74.06l14.7,6.09L84.4,65.45,69.7,59.36ZM70.56,57.28l14.7,6.09L100,57.28l-14.7-6.09ZM25.9,75.78l-6.09,14.7,14.7-6.09,6.09-14.7Zm10.69,9.47L42.68,100l6.09-14.7-6.09-14.7ZM17.64,50l14.7,6.09L47,50l-14.7-6.09ZM33.2,58.14l-6.09,14.7,14.7-6.09,6.09-14.7ZM0,57.28l14.7,6.09,14.7-6.09L14.7,51.19Zm15.56,8.17L9.47,80.15l14.7-6.09,6.09-14.7ZM52.92,50l14.7,6.09L82.32,50l-14.7-6.09ZM58.15,33.2,52.06,47.9l14.7-6.09,6.09-14.7Zm12.41,9.47,14.7,6.09L100,42.67l-14.7-6.09Zm5.23-16.78L69.7,40.59,84.4,34.5l6.09-14.7Z" style="fill:url(#radial-gradient)"/><path d="M0,117.36H9.3v2H2.09v3.8h5.7v2H2.09v5.51H0Zm12.7,0h5.51a4.15,4.15,0,0,1,4.37,4.18,4,4,0,0,1-2.54,3.8l3,5.32H20.69l-2.75-4.94H14.81v4.94H12.72v-13.3Zm5.51,6.45a2.28,2.28,0,0,0,0-4.56H14.79v4.56Zm8.62-6.45h9.4v2H28.92v3.42h5.79v2H28.92v3.89h7.5v2H26.83Zm13.46,0h9.4v2H42.38v3.42h5.79v2H42.38v3.89h7.5v2H40.29Zm13.46,0h4.46a6.65,6.65,0,1,1,0,13.28H53.75Zm4.46,11.39a4.75,4.75,0,1,0,0-9.5H55.84v9.49h2.37ZM75,117.17A6.83,6.83,0,1,1,68,124,6.85,6.85,0,0,1,75,117.17Zm0,11.77A4.94,4.94,0,1,0,70.05,124,4.91,4.91,0,0,0,75,128.94ZM85.6,117.36h1.9l5,6.45,5-6.45h1.9v13.29H97.37v-9.78L92.53,127l-4.84-6.17v9.78H85.6ZM0,137.26H9.3v2H2.09v3.8h5.7v2H2.09v5.51H0Zm18.13-.19a6.83,6.83,0,1,1,0,13.66,6.83,6.83,0,1,1,0-13.66Zm0,11.77a4.94,4.94,0,1,0-4.94-4.94A4.91,4.91,0,0,0,18.13,148.84Zm10.45-11.58h5.51a4.15,4.15,0,0,1,4.37,4.18,4,4,0,0,1-2.54,3.8l3,5.32H36.57l-2.75-4.94H30.69v4.94H28.6v-13.3Zm5.5,6.46a2.28,2.28,0,1,0,0-4.56H30.66v4.56Zm6.55-6.46h2.18l3.23,10,3.13-10h2.09l3.13,10,3.23-10H59.8l-4.37,13.29H53.34l-3.13-10-3.13,10H45Zm24.4,0h2.28l5.32,13.29H70.45l-1.33-3.42H63.23l-1.33,3.42H59.72Zm3.32,8-2.18-5.51L64,145.24Zm6.64-8H80.5a4.15,4.15,0,0,1,4.37,4.18,4,4,0,0,1-2.54,3.8l3,5.32H83l-2.75-4.94H77.1v4.94H75v-13.3Zm5.51,6.46a2.28,2.28,0,0,0,0-4.56H77.08v4.56Zm8.07-6.46H93a6.65,6.65,0,1,1,0,13.28H88.57ZM93,148.65a4.75,4.75,0,1,0,0-9.5H90.66v9.49H93Z" style="fill:#3b4752"/></g></g></svg>