<svg width="698" height="548" viewBox="0 0 698 548" fill="none" xmlns="http://www.w3.org/2000/svg">
<g opacity="0.504511">
<path fill-rule="evenodd" clip-rule="evenodd" d="M620.299 183.649C628.849 219.682 421.5 243.184 243.031 226.782C64.5618 210.38 -17.3114 146.329 67.8511 112.2C153.014 78.0706 611.749 147.617 620.299 183.649Z" fill="#F2F2F2"/>
</g>
<g opacity="0.7">
<path fill-rule="evenodd" clip-rule="evenodd" d="M490.317 214.751C502.635 214.065 517.87 221.783 519.184 236.156C520.138 246.599 519.843 257.012 521.32 267.439C522.502 275.773 525 283.773 528.408 291.364C531.684 298.664 538.481 304.878 540.249 312.676C541.376 317.645 540.745 324.635 539.191 329.496C537.302 335.405 538.306 334.938 542.071 339.897C549.45 349.614 556.093 359.579 560.792 371.185C567.559 387.901 571.996 407.441 569.484 425.74C569.165 428.063 568.786 436.402 565.805 436.985C562.476 437.637 564.032 432.868 564.21 431.327C565.343 421.497 566.349 412.905 564.983 402.922C559.711 364.404 533.968 339.026 517.206 306.334C516.285 304.648 514.339 300.634 512.987 297.985C510.851 293.804 508.705 285.848 505.814 282.748C500.37 276.907 505.375 288.649 506.436 290.891C507.777 293.726 509.253 296.74 510.627 299.224C516.916 310.742 523.936 323.314 530.431 335.186C502.34 342.056 482.557 305.806 475.018 281.973C468.808 262.338 461.376 216.431 490.317 214.751Z" fill="#69A1AC"/>
<path fill-rule="evenodd" clip-rule="evenodd" d="M655.418 178.287C634.825 180.041 621.606 194.627 615.452 215.027C612.135 226.021 611.755 237.315 609.912 248.613C607.139 265.612 601.173 278.493 589.515 290.603C585.903 294.354 583.242 298.205 581.351 302.325C577.595 306.438 574.326 311.093 571.925 316.784C568.857 324.052 567.989 332.772 571.531 340.018C572.483 341.966 574.859 345.876 577.321 347.653C568.103 368.727 563.034 391.809 563.605 414.861C563.951 428.776 564.583 442.697 565.322 456.596C565.521 460.327 566.653 466.49 568.353 460.231C569.909 454.507 567.958 445.52 567.777 439.539C566.899 410.406 566.147 383.916 577.32 356.697C578.491 353.844 579.734 351.014 581.027 348.207C581.103 348.16 581.174 348.103 581.245 348.047C581.294 348.088 581.339 348.132 581.389 348.172C581.471 348.014 581.584 347.825 581.716 347.615C582.087 347.204 582.411 346.685 582.72 346.105C583.711 344.631 584.832 342.899 584.838 341.951C584.838 341.944 584.834 341.932 584.834 341.925C591.751 329.806 599.673 318.354 607.764 307.127C607.704 307.209 616.541 294.292 615.175 301.435C614.516 304.877 608.016 311.433 605.39 315.079C599.582 323.191 592.762 333.469 587.095 343.408C586.332 343.878 585.255 346.188 584.475 347.909C584.045 348.78 583.644 349.659 583.249 350.425C603.331 357.547 618.952 343.201 629.604 326.515C629.617 326.495 629.628 326.475 629.641 326.455C632.882 321.845 636.203 317.267 640.351 313.622C647.272 307.54 654.684 306.467 662.844 303.474C685.097 295.313 694.559 264.355 697.564 241.385C700.954 215.47 684.37 175.732 655.418 178.287Z" fill="#89C5CC"/>
<path fill-rule="evenodd" clip-rule="evenodd" d="M614.741 105.716C593.606 129.328 583.396 162.077 575.311 192.864C566.281 227.251 560.316 262.168 560.087 297.92C559.937 321.408 559.342 345.044 560.619 368.506C561.072 376.838 561.846 385.185 563.077 393.428C563.178 394.105 565.931 412.51 568.564 408.221C570.062 405.782 565.743 389.129 565.416 386.355C563.58 370.733 563.154 354.995 563.243 339.259C563.39 313.351 562.679 287.575 565.125 261.762C565.49 257.908 565.778 253.86 566.631 250.09C567.537 246.082 566.383 247.831 569.333 246.245C572.199 244.702 575.74 244.922 578.714 242.987C590.509 235.31 596.543 215.589 601.239 202.65C606.61 187.853 609.874 172.075 612.482 156.503C614.396 145.062 615.765 133.691 616.54 122.103C616.784 118.451 616.798 114.632 617.467 111.041C617.647 110.072 618.551 108.358 618.518 107.501C618.449 105.685 617.428 104.617 617.344 103.092C616.46 103.946 615.591 104.822 614.741 105.716Z" fill="#89C5CC"/>
<path fill-rule="evenodd" clip-rule="evenodd" d="M499.5 420.299C499.5 459.346 528.99 491 565.366 491C601.743 491 631.232 459.346 631.232 420.299" fill="#89C5CC"/>
<path fill-rule="evenodd" clip-rule="evenodd" d="M610.504 358.396C626.806 357.106 645.011 371.222 652.874 385.913C659.213 397.757 658.145 413.311 654.229 425.894C651.608 434.319 645.885 446.33 636.343 446.447C624.404 446.594 623.829 430.755 623.598 421.495C623.291 409.185 621.842 398.461 612.805 390.07C611.689 389.035 610.519 388.065 609.348 387.096C608.309 386.235 607.27 385.375 606.269 384.468C606.11 384.323 605.949 384.178 605.788 384.033C602.592 381.15 599.236 378.122 598.828 373.37C598.235 366.484 601.857 365.244 607.386 366.524C607.564 366.565 608.049 366.762 608.708 367.03C611.532 368.179 617.557 370.631 616.417 367.7C615.988 366.596 614.421 365.721 612.442 365.065C607.322 364.468 601.216 363.774 599.46 364.189C580.517 368.65 573.141 396.817 571.182 414.713C570.971 416.644 570.8 418.582 570.651 420.523H567.171C567.412 415.836 567.731 411.157 568.461 406.522C571.253 388.796 579.983 362.76 599.129 359.883C599.836 359.776 602.434 359.758 605.581 359.956C607.073 359.061 608.744 358.52 610.504 358.396Z" fill="#69A1AC"/>
</g>
<g opacity="0.5">
<path fill-rule="evenodd" clip-rule="evenodd" d="M171.196 101.58C175.233 96.1187 182.724 82.2479 188.405 80.2963C192.065 79.0393 190.998 92.0422 191.043 94.5215C191.219 104.114 190.235 113.645 189.02 123.157C186.83 140.311 179.671 155.589 169.851 170.189C164.798 177.701 158.871 185.305 150.662 189.993C146.883 192.151 142.336 192.513 138.605 194.373C134.259 196.538 136.626 194.788 134.667 199.085C131.947 205.051 131.077 212.748 129.819 219.115C124.04 248.339 110.051 402.827 112.477 432.554C112.692 435.189 108.82 435.819 108.627 432.602C107.6 415.547 116.489 297.439 120.974 258.814C125.459 220.189 129.998 186.066 134.549 172.703C140.07 156.491 150.041 136.995 158.341 121.876C162.197 114.853 166.399 108.071 171.196 101.58Z" fill="#69A1AC"/>
<path fill-rule="evenodd" clip-rule="evenodd" d="M201.158 291.018C211.662 283.7 223.031 297.51 213.526 304.829C208.272 308.874 202.779 307.435 199.686 304.064C197.678 306.386 195.799 308.814 193.994 310.865C188.493 317.114 183.294 323.512 178.325 330.06C168.003 343.662 159.157 358.033 149.908 372.141C140.78 386.064 131.725 400.059 123.452 414.335C116.444 426.431 107.102 440.66 104.703 453.921C108.343 425.798 122.158 398.767 138.609 373.975C154.926 349.386 173.652 322.532 198.917 303.127C196.345 299.539 196.274 294.418 201.158 291.018Z" fill="#C1DEE2"/>
<path fill-rule="evenodd" clip-rule="evenodd" d="M1.83777 222.43C7.71575 223.521 17.3203 236.139 22.1655 240.946C27.9237 246.659 33.1479 252.748 38.0722 259.128C48.6733 272.86 58.1542 287.46 66.2161 302.686C79.3592 327.507 89.8885 352.986 97.53 380.015C102.208 396.56 105.236 413.708 107.031 430.737C107.37 433.948 110.919 458.708 105.806 459.376C101.207 459.976 102.627 440.575 102.406 437.936C99.8978 408.162 92.3853 379.192 81.9355 351.128C79.6594 345.015 77.5448 337.527 73.9047 332.026C71.2834 328.063 73.8859 329.445 69.2793 327.945C65.3237 326.657 60.8169 326.972 56.7663 325.394C47.9668 321.97 40.921 315.323 34.7448 308.636C22.7423 295.642 13.2309 281.583 8.27307 264.933C5.52279 255.7 2.99541 246.414 1.59288 236.897C1.23007 234.437 -1.9482 221.728 1.83777 222.43Z" fill="#69A1AC"/>
<path fill-rule="evenodd" clip-rule="evenodd" d="M25.0338 12.502C47.175 48.9382 65.3697 88.9623 77.1181 129.501C84.2363 154.063 89.2142 179.267 94.1602 204.288C101.818 243.032 109.062 281.772 111.122 321.204C113.195 360.864 117.294 406.607 103.608 444.806C110.444 406.024 103.936 364.743 102.784 325.72C102.233 307.091 100.637 288.644 98.5435 270.124C96.5121 252.159 93.1932 234.279 90.1026 216.454C88.5972 207.774 87.0161 199.106 85.4063 190.443C84.9257 187.858 84.7227 180.189 82.9949 178.423C81.2559 176.646 72.3833 175.922 69.5977 174.618C63.9885 171.991 58.7123 168.26 54.0427 164.318C45.091 156.761 37.3035 146.887 31.157 137.154C16.9355 114.632 11.2498 87.1474 11.5372 61.0644C11.5924 56.0002 20.1753 1.46745 16.7283 0.71649C16.9358 0.48585 17.1321 0.247707 17.3172 0C19.9269 4.14616 22.4878 8.32042 25.0338 12.502Z" fill="#89C5CC"/>
<path fill-rule="evenodd" clip-rule="evenodd" d="M264.01 143.912C264.352 143.445 266.575 140.193 265.455 140.401C267.735 139.978 262.32 143.987 268 141.527C265.303 143.944 266.86 147.084 266.896 150.337C266.954 155.618 266.023 160.856 264.975 166.024C263.318 174.193 260.851 182.136 257.269 189.735C249.462 206.293 236.206 222.234 220.469 232.586C212.7 237.697 205.086 239.437 196.226 241.79C190.629 243.277 190.185 246.024 187.214 251.178C181.029 261.911 174.955 272.606 169.5 283.702C162.987 296.951 156.665 310.215 150.7 323.698C130.609 369.114 114.256 416.165 105.668 464.859C105.457 436.164 112.453 406.61 121.277 379.259C127.705 359.332 136.073 340.123 144.998 321.108C147.161 316.501 150.439 310.575 151.357 305.489C152 301.926 150.034 298.499 149.134 294.745C145.624 280.127 145.876 263.751 148.957 249.054C152.356 232.849 162.182 225.328 178.806 223.033C184.886 222.193 192.613 222.501 198.188 220.041C204.261 217.362 206.767 208.558 210.22 202.906C219.497 187.724 230.518 173.164 243.174 160.372C246.678 156.829 250.447 153.561 254.445 150.532C256.966 148.621 262.292 146.267 264.01 143.912Z" fill="#89C5CC"/>
<path fill-rule="evenodd" clip-rule="evenodd" d="M72.9396 439.636C72.4685 436.605 74.8128 433.868 77.8803 433.868H136.328C139.395 433.868 141.74 436.605 141.269 439.636L137.005 467.071C135.491 476.814 127.102 484 117.242 484H96.9663C87.1065 484 78.7178 476.814 77.2036 467.071L72.9396 439.636Z" fill="#C1DEE2"/>
</g>
<path fill-rule="evenodd" clip-rule="evenodd" d="M234.725 242.78C239.616 244.189 244.082 244.305 245.891 243.282C250.426 240.719 246.106 222.777 240.458 216.763C234.81 210.749 214.615 212.887 217.362 227.07C218.316 231.992 221.498 235.759 225.436 238.473L226.762 264.965L242.372 260.776L234.725 242.78Z" fill="#784931"/>
<path fill-rule="evenodd" clip-rule="evenodd" d="M232.246 210.766C229.939 210.688 226.783 211.298 225.521 211.797C225.787 209.823 225.552 207.766 224.797 205.904C224.063 204.095 222.801 202.726 221.581 201.264C221.019 200.59 220.41 199.933 219.65 199.506C218.876 199.071 217.994 198.883 217.129 198.913C216.244 198.943 215.377 199.193 214.589 199.593C214.241 199.77 213.954 200.027 213.617 200.218C213.272 200.414 213.03 200.23 212.699 200.069C211.9 199.681 210.875 199.659 210.027 199.78C209.077 199.916 208.159 200.311 207.362 200.849C206.586 201.373 205.893 202.072 205.461 202.935C205.269 203.32 205.114 203.74 205.056 204.173C205.032 204.351 205.046 204.449 204.902 204.55C204.769 204.644 204.597 204.692 204.458 204.785C203.118 205.68 202.163 207.157 201.868 208.803C201.696 209.763 201.908 211.316 202.41 212.986C202.912 214.655 205.607 218.639 207.457 219.86C209.108 220.949 211.226 221.393 213.136 221.323C212.307 223.009 211.968 224.929 211.844 226.822C211.71 228.879 211.838 230.944 212.226 232.979C212.595 234.913 213.118 236.922 214.059 238.659C214.939 240.282 216.21 241.468 217.936 241.972C218.726 242.204 219.541 242.318 220.353 242.405C221.153 242.49 221.954 242.567 222.755 242.52C224.273 242.431 225.916 241.936 226.717 240.494C227.006 239.974 227.306 239.338 227.462 238.756C227.519 238.546 227.55 238.411 227.375 238.268C227.166 238.096 226.876 238 226.636 237.886C225.266 237.24 224.237 236.161 223.661 234.707C223.077 233.23 222.96 231.154 224.264 230.091C225.872 228.78 228.138 229.182 229.998 229.624C230.036 227 230.867 224.425 232.791 222.71C234.92 220.812 237.704 219.91 239.948 218.17C240.532 217.717 241.119 217.223 241.453 216.529C241.593 216.239 241.749 215.87 241.747 215.536C241.744 215.099 241.388 214.826 241.099 214.562C239.565 213.161 234.552 210.844 232.246 210.766Z" fill="#191847"/>
<path fill-rule="evenodd" clip-rule="evenodd" d="M230.187 318.934L254.598 404.611L272.409 467.76H285.4L266.473 318.934H230.187Z" fill="#1E0D3F"/>
<path fill-rule="evenodd" clip-rule="evenodd" d="M223.658 318.934C223.094 363.093 221.168 387.178 220.575 391.191C219.983 395.203 211.018 420.726 193.683 467.76H207.14C229.21 422.639 241.529 397.115 244.099 391.191C246.669 385.266 254.601 361.18 266.547 318.934H223.658Z" fill="black"/>
<path fill-rule="evenodd" clip-rule="evenodd" d="M192.48 479.882L193.153 465.74L207.293 465.74C217.35 472.811 233.553 477.188 233.553 477.188V479.882H207.967L199.213 478.535V479.882H192.48Z" fill="#191847"/>
<path fill-rule="evenodd" clip-rule="evenodd" d="M270.587 479.882L271.26 465.74L285.4 465.74C295.457 472.811 311.66 477.188 311.66 477.188V479.882H286.073L277.32 478.535V479.882H270.587Z" fill="#191847"/>
<path fill-rule="evenodd" clip-rule="evenodd" d="M183.836 355.222C185.669 351.151 193.173 309.981 193.173 309.981L205.218 309.613C205.218 309.613 193.53 353.987 192.581 356.597C191.349 359.987 193.807 364.763 195.475 368.001C195.733 368.502 195.971 368.966 196.175 369.383C194.053 370.423 192.978 369.294 191.844 368.103C190.563 366.758 189.208 365.335 186.187 366.872C185.019 367.466 183.919 368.158 182.845 368.834C179.133 371.17 175.723 373.316 170.887 370.561C170.12 370.124 169.237 368.409 171.177 366.976C176.011 363.406 182.94 357.212 183.836 355.222ZM308.11 314.752L285.106 301.316L281.608 313.488L303.679 320.031C310.398 326.429 314.05 329.006 314.636 327.763C315.13 326.715 314.566 325.842 314.048 325.038C313.643 324.411 313.266 323.826 313.437 323.233C313.826 321.879 317.859 321.592 321.697 321.484C325.536 321.375 324.248 319.798 323.242 319.058C319.112 317.14 314.068 315.705 308.11 314.752Z" fill="#B28B67"/>
<path fill-rule="evenodd" clip-rule="evenodd" d="M233.832 253.426L240.686 249.733C254.899 272.654 273.823 293.917 301.97 309.729L297.734 321.3C273.873 312.382 251.667 306.102 239.998 288.457C236.082 282.535 234.955 261.136 233.832 253.426Z" fill="#92AB94"/>
<path fill-rule="evenodd" clip-rule="evenodd" d="M221.055 327.256C221.055 327.256 252.909 325.048 270.281 318.561C271.716 318.025 271.513 315.5 270.529 313.936C255.198 289.581 243.822 267.976 240.613 249.746C237.927 251.753 230.373 252.014 230.373 252.014C220.476 273.133 218.2 295.762 221.055 327.256Z" fill="#FAF8F6"/>
<path fill-rule="evenodd" clip-rule="evenodd" d="M226.312 251.108C226.612 250.818 226.772 250.672 226.772 250.672L226.813 251.02L232.317 250.048C232.879 251.625 234.346 257.583 236.484 266.269C244.253 297.834 260.892 365.438 275.285 389.892L207.778 401.816C203.962 371.798 208.67 334.262 214.716 302.029C207.798 311.857 200.464 327.579 196.647 352.268L183.431 351.255C186.541 293.444 219.254 258.134 225.68 251.728C225.723 251.551 225.765 251.374 225.807 251.198L226.312 251.108Z" fill="#B6CCB8"/>
<path fill-rule="evenodd" clip-rule="evenodd" d="M444.444 262.963C440.019 266.125 435.671 267.653 433.63 267.029C428.513 265.465 428.042 243.268 432.002 234.517C435.962 225.765 456.318 221.951 457.345 239.29C457.701 245.307 455.57 250.678 452.421 255.06L458.067 286.261H441.667L444.444 262.963Z" fill="#B28B67"/>
<path fill-rule="evenodd" clip-rule="evenodd" d="M424.736 222.385C425.076 220.97 425.99 219.758 427.221 219.398C427.519 219.311 427.827 219.276 428.135 219.29C428.245 219.296 428.276 219.333 428.327 219.242C428.365 219.174 428.366 219.009 428.382 218.929C428.431 218.682 428.492 218.437 428.568 218.199C428.825 217.387 429.258 216.668 429.78 216.063C430.756 214.93 432.075 214.148 433.445 214.007C434.195 213.93 434.939 214.074 435.648 214.363C436.015 214.513 436.371 214.7 436.718 214.906C436.822 214.968 437.161 215.272 437.265 215.252C437.381 215.23 437.614 214.889 437.708 214.804C438.87 213.746 440.306 213.33 441.754 213.343C443.389 213.357 444.963 213.454 446.326 214.636C446.614 214.886 446.889 215.16 447.151 215.448C447.289 215.6 447.422 215.757 447.549 215.921C447.626 216.02 447.701 216.121 447.773 216.225C447.895 216.402 447.876 216.46 448.047 216.337C448.703 215.864 449.463 215.643 450.229 215.755C450.683 215.821 451.126 215.983 451.546 216.196C451.689 216.268 452.02 216.558 452.172 216.56C452.324 216.563 452.65 216.295 452.806 216.227C453.647 215.859 454.554 215.768 455.438 215.938C456.35 216.114 457.247 216.545 458.019 217.141C458.391 217.428 458.716 217.746 458.976 218.173C459.089 218.357 459.19 218.551 459.318 218.722C459.392 218.822 459.54 218.925 459.58 219.051C459.556 218.976 460.578 218.509 460.674 218.479C461.188 218.32 461.711 218.352 462.214 218.548C463.159 218.917 463.973 219.745 464.641 220.593C464.984 221.029 465.285 221.51 465.54 222.024C465.662 222.269 465.774 222.522 465.876 222.781C465.925 222.906 465.958 223.062 466.024 223.175C466.108 223.32 466.164 223.323 466.317 223.386C467.091 223.708 467.796 224.252 468.333 224.987C468.877 225.731 469.23 226.647 469.377 227.612C469.386 227.668 469.391 227.904 469.419 227.935C469.458 227.977 469.613 227.958 469.672 227.967C469.876 227.995 470.079 228.037 470.278 228.093C470.647 228.197 471.005 228.349 471.344 228.547C472.666 229.323 473.611 230.776 474.073 232.412C474.559 234.128 474.55 236.094 473.97 237.779C473.876 238.051 473.765 238.315 473.634 238.565C473.553 238.718 473.527 238.718 473.58 238.879C473.638 239.058 473.744 239.232 473.813 239.407C474.039 239.978 474.196 240.583 474.296 241.201C474.459 242.216 474.54 243.281 474.379 244.303C474.304 244.778 474.174 245.242 473.975 245.664C473.873 245.88 473.755 246.084 473.621 246.273C473.551 246.371 473.477 246.465 473.4 246.555C473.356 246.606 473.298 246.651 473.26 246.708C473.169 246.848 473.149 246.733 473.197 246.939C473.263 247.225 473.413 247.508 473.505 247.787C473.599 248.075 473.685 248.367 473.763 248.661C473.921 249.257 474.055 249.864 474.139 250.482C474.3 251.667 474.272 252.931 473.799 254.019C473.596 254.484 473.306 254.892 472.954 255.21C472.782 255.365 472.596 255.499 472.4 255.609C472.299 255.666 472.171 255.69 472.125 255.805C472.076 255.929 472.149 256.175 472.166 256.314C472.311 257.52 472.384 258.786 472.082 259.968C471.803 261.056 471.19 262.017 470.394 262.653C468.85 263.887 466.769 263.818 465.147 262.83C464.724 262.572 464.328 262.252 463.975 261.875C463.076 263.309 461.227 263.264 459.913 262.855C458.277 262.346 456.964 260.997 456.207 259.224C455.173 260.717 453.002 260.233 452.284 258.613C452.109 258.217 452.005 257.78 451.953 257.338C451.926 257.105 451.944 256.871 451.923 256.64C451.897 256.346 451.732 256.06 451.637 255.776C451.451 255.223 451.336 254.651 451.331 254.054C451.329 253.743 451.362 253.439 451.387 253.13C451.409 252.851 451.344 252.592 451.307 252.318C451.727 252.399 452.238 252.265 452.634 252.121C453.022 251.979 453.385 251.606 453.659 251.266C454.295 250.475 454.684 249.438 454.949 248.406C455.532 246.142 455.293 243.425 453.372 242.182C452.477 241.603 449.796 241.605 448.73 241.891C447.609 242.192 446.338 245.124 446.276 245.4C446.237 245.57 446.257 245.781 446.125 245.895C445.834 246.145 445.355 245.711 445.141 245.497C444.771 245.128 444.507 244.636 444.279 244.138C443.781 243.052 443.38 241.888 443.097 240.7C442.878 239.784 442.739 238.839 442.453 237.947C442.169 237.058 441.721 236.264 441.024 235.761C440.267 235.214 439.398 234.925 438.567 234.581C437.742 234.24 436.932 233.823 436.293 233.1C436.152 232.941 436.016 232.772 435.903 232.585C435.813 232.437 435.725 232.154 435.589 232.06C435.378 231.914 435.069 232.293 434.886 232.431C433.984 233.111 433.231 234.058 432.624 235.093C432.02 236.123 431.525 237.114 431.122 238.263C430.824 239.116 430.637 240.208 430.112 240.907C429.877 241.219 428.135 241.407 427.57 241.135C427.006 240.863 426.373 240.155 426.183 239.712C425.989 239.258 425.943 238.76 426.026 238.263C426.075 237.971 426.174 237.698 426.229 237.411C426.275 237.17 426.316 236.942 426.415 236.721C426.603 236.303 426.923 236.002 427.31 235.876C426.907 235.436 426.574 234.91 426.344 234.323C426.104 233.712 425.901 232.969 425.843 232.298C425.797 231.754 425.869 231.19 426.12 230.722C426.384 230.231 426.851 229.911 427.255 229.604C426.638 229.032 426.109 228.335 425.675 227.564C424.83 226.064 424.307 224.173 424.736 222.385Z" fill="#191847"/>
<path fill-rule="evenodd" clip-rule="evenodd" d="M498.783 387.535C507.62 387.535 514.783 394.699 514.783 403.535V472C514.783 480.836 507.62 488 498.783 488H430.333C421.497 488 414.333 480.836 414.333 472V403.535C414.333 394.699 421.497 387.535 430.333 387.535H498.783ZM491.65 410.221C493.859 410.221 495.65 412.012 495.65 414.221V461.314C495.65 463.523 493.859 465.314 491.65 465.314H437.467C435.258 465.314 433.467 463.523 433.467 461.314V414.221C433.467 412.012 435.258 410.221 437.467 410.221H491.65Z" fill="#C5CFD6"/>
<path fill-rule="evenodd" clip-rule="evenodd" d="M383.098 431.756C380.556 442.312 374.224 462.318 365.469 485.294L357.149 482.416C364.428 429.546 370.485 394.544 373.955 383.891C376.248 376.853 393.592 377.677 391.597 391.84C390.76 397.779 387.449 413.683 383.098 431.756ZM417.294 394.31C430.862 397.643 458.993 409.425 467.026 413.189C472.075 415.555 468.82 423.58 464.513 422.878C463.784 422.759 461.204 422.417 457.354 421.906C444.987 420.265 419.519 416.887 400.203 413.591C390.032 411.856 395.503 389.268 406.064 391.658C409.616 392.462 413.395 393.352 417.294 394.31Z" fill="#B28B67"/>
<path fill-rule="evenodd" clip-rule="evenodd" d="M373.423 377.924C374.81 372.558 437.866 353.507 437.866 353.507H443.033V359.216L399.582 385.442C399.64 386.288 399.605 387.183 399.464 388.126C399.778 407.568 392.76 422.092 385.812 436.473C381.268 445.876 376.754 455.219 374.339 465.834L358.376 463.01C358.841 461.6 359.576 455.242 360.581 446.549C363.116 424.63 367.368 387.866 373.333 378.14C373.354 378.106 373.375 378.072 373.397 378.038C373.405 378 373.413 377.962 373.423 377.924Z" fill="#BBB26C"/>
<path fill-rule="evenodd" clip-rule="evenodd" d="M439.423 401.017C443.399 400.074 447.06 399.231 450.193 398.58C470.429 394.372 476.33 381.529 472.841 353.507H435.557C429.466 355.581 397.815 371.319 381.392 379.689C370.523 385.23 373.949 405.201 380.105 410.399C380.138 410.717 380.249 410.934 380.446 411.031C403.783 422.499 423.683 421.643 436.462 421.094C441.814 420.863 445.917 420.687 448.5 421.492L452.547 406.355L439.423 401.017Z" fill="#E9DE88"/>
<path fill-rule="evenodd" clip-rule="evenodd" d="M462.75 412.746C462.798 411.589 463.637 410.709 464.684 410.854C466.103 411.05 467.954 411.395 468.9 411.942C470.561 412.903 473.478 415.402 473.478 415.402C472.538 417.687 456.583 456.474 456.583 456.474C456.583 456.474 451.46 455.493 452.523 451.838C453.586 448.183 454.238 445.736 454.238 445.736L454.908 422.659C454.925 422.101 455.334 421.692 455.839 421.729L458.654 421.939C458.654 421.939 461.224 419.473 462.045 417.476C462.511 416.346 462.686 414.304 462.75 412.746Z" fill="#E4E4E4"/>
<path fill-rule="evenodd" clip-rule="evenodd" d="M366.72 480.547C367.871 480 369.293 480.517 369.649 481.741C370.104 483.306 370.6 485.28 370.6 486.465C370.6 488.656 369.984 492.861 369.984 492.861C367.84 492.861 331.443 492.861 331.443 492.861C331.443 492.861 329.941 486.972 333.177 486.503C336.414 486.033 338.555 485.655 338.555 485.655L356.081 476.391C356.623 476.105 357.292 476.368 357.493 476.947L358.53 479.929C358.53 479.929 361.527 481.587 363.4 481.587C364.3 481.587 365.606 481.077 366.72 480.547Z" fill="#E4E4E4"/>
<path fill-rule="evenodd" clip-rule="evenodd" d="M384.012 363.033L403.37 340.644L409.799 353.834L389.67 367.904C384.623 377.331 381.658 381.404 380.777 380.124C380.034 379.044 380.374 377.861 380.688 376.771C380.932 375.922 381.16 375.129 380.847 374.486C380.132 373.019 376.09 373.859 372.284 374.851C368.478 375.843 369.359 373.626 370.168 372.469C373.765 369.027 378.38 365.882 384.012 363.033ZM498.111 395.563C496.109 390.747 489.29 343.801 489.29 343.801L475.01 343.868C475.01 343.868 488.235 394.489 489.29 397.587C490.659 401.61 488.333 407.456 486.756 411.42C486.512 412.034 486.286 412.602 486.094 413.111C488.282 414.272 489.334 412.869 490.442 411.389C491.694 409.718 493.018 407.95 496.137 409.67C497.341 410.334 498.481 411.12 499.595 411.888C503.442 414.539 506.976 416.975 511.784 413.457C512.546 412.9 513.382 410.8 511.363 409.16C506.336 405.072 499.09 397.918 498.111 395.563Z" fill="#B28B67"/>
<path fill-rule="evenodd" clip-rule="evenodd" d="M448.708 272.757L442.799 271.555C432.626 301.687 414.865 329.065 389.516 353.69L408.671 381.282C434.017 346.22 449.641 310.044 448.708 272.757Z" fill="black"/>
<path fill-rule="evenodd" clip-rule="evenodd" d="M474.467 360.799H421.85C421.85 360.799 440.135 308.086 440.135 271.24L456.007 268.437C468.481 292.223 472.003 321.508 474.467 360.799Z" fill="#AC4DFF"/>
<path fill-rule="evenodd" clip-rule="evenodd" d="M498.383 387.536C492.629 310.564 456.356 268.437 456.356 268.437L456.343 268.45C456.341 268.445 456.339 268.441 456.337 268.437H455.301C453.441 268.512 449.636 268.71 449.636 268.71L445.801 281.705C445.192 305.471 438.693 377.494 438.693 377.494H473.134C473.076 380.796 472.946 384.145 472.737 387.536H498.383Z" fill="#1E0D3F"/>
<path fill-rule="evenodd" clip-rule="evenodd" d="M473.128 377.813C473.403 363.433 472.327 349.93 470.532 337.71C469.593 352.21 467.631 369.657 463.533 377.813H473.128Z" fill="black" fill-opacity="0.1"/>
<path fill-rule="evenodd" clip-rule="evenodd" d="M465.507 352.697L448.5 343.322V352.697H465.507Z" fill="white" fill-opacity="0.2"/>
</svg>
