<svg width="87" height="15" viewBox="0 0 87 15" fill="none" xmlns="http://www.w3.org/2000/svg">
<path d="M1.43923 0.504395H0V11.4224H3.43359V10.034H1.43923V0.504395Z" fill="#3D3949"/>
<path d="M11.2668 5.13427C10.7939 4.2928 9.72478 3.87207 8.73788 3.87207C6.76408 3.87207 5.07812 5.36567 5.07812 7.72177C5.07812 10.0568 6.76408 11.5925 8.73788 11.5925C9.74534 11.5925 10.7939 11.1297 11.2668 10.2882V11.4242H12.6649V4.01933H11.2668V5.13427ZM8.84068 10.162C7.54538 10.162 6.49679 9.15226 6.49679 7.70073C6.49679 6.22817 7.54538 5.28152 8.84068 5.28152C9.99207 5.28152 11.2463 6.12299 11.2463 7.70073C11.2463 9.25744 10.136 10.162 8.84068 10.162Z" fill="#3D3949"/>
<path d="M19.7583 8.01648C19.7583 9.59423 18.7302 10.1622 17.7228 10.1622C16.7359 10.1622 16.1396 9.42594 16.1396 8.20581V4.01953H14.7415V8.28996C14.721 10.3726 15.7079 11.5717 17.5172 11.5717C18.2985 11.5717 19.3265 11.193 19.7583 10.3095V11.4244H21.1564V4.01953H19.7583V8.01648Z" fill="#3D3949"/>
<path d="M26.9957 3.87207C26.2144 3.87207 25.1658 4.25073 24.734 5.13427V4.01933H23.3359V11.4032H24.734V7.40622C24.734 5.82847 25.7621 5.26049 26.7695 5.26049C27.7564 5.26049 28.3732 5.99677 28.3732 7.21689V11.4032C28.5994 11.4032 29.5452 11.4032 29.7713 11.4032V7.13274C29.7919 5.07116 28.805 3.87207 26.9957 3.87207Z" fill="#3D3949"/>
<path d="M35.2197 10.183C33.9244 10.183 32.7936 9.19433 32.7936 7.70073C32.7936 6.20713 33.9244 5.28152 35.2197 5.28152C35.8776 5.28152 36.4944 5.53396 36.9468 5.97573L38.0159 5.05012C37.3374 4.2928 36.33 3.87207 35.2403 3.87207C33.1842 3.87207 31.416 5.36567 31.416 7.70073C31.416 10.0358 33.1842 11.5715 35.2403 11.5715C36.3505 11.5715 37.358 11.1297 38.0365 10.3724L36.9468 9.44677C36.4944 9.90957 35.8776 10.183 35.2197 10.183Z" fill="#3D3949"/>
<path d="M43.4032 3.87033C42.6219 3.87033 41.45 4.24899 41.0182 5.13252V0.209961H39.6201V11.4225H41.0182V7.42551C41.0182 5.84777 42.2313 5.27978 43.2182 5.27978C44.2051 5.27978 44.9247 6.01606 44.9247 7.23618V11.4225C45.1509 11.4225 46.0967 11.4225 46.3228 11.4225V7.131C46.3434 5.06941 45.2126 3.87033 43.4032 3.87033Z" fill="#3D3949"/>
<path d="M52.3265 3.87207C51.319 3.87207 50.291 4.35591 49.7975 5.17634V4.01933H48.3994V15.0004H49.7975V10.3093C50.2704 11.1718 51.319 11.5715 52.3265 11.5715C54.3002 11.5715 55.9451 10.0779 55.9451 7.7428C55.9451 5.40774 54.3208 3.87207 52.3265 3.87207ZM52.1825 10.162C51.0311 10.162 49.8181 9.34159 49.8181 7.76384C49.8181 6.1861 50.9078 5.28152 52.1825 5.28152C53.4778 5.28152 54.5264 6.29128 54.5264 7.76384C54.5264 9.2364 53.4984 10.162 52.1825 10.162Z" fill="#3D3949"/>
<path d="M77.5744 5.13293C77.1015 4.29146 76.0941 3.87073 75.0249 3.87073C73.0511 3.87073 71.3857 5.36433 71.3857 7.72043C71.3857 10.0555 73.0511 11.5912 75.0455 11.5912C76.053 11.5912 77.1015 11.1284 77.5744 10.2869V11.4229H78.9725V0H77.5744V5.13293ZM75.1689 10.1607C73.8736 10.1607 72.825 9.15092 72.825 7.69939C72.825 6.22683 73.853 5.28019 75.1689 5.28019C76.3202 5.28019 77.5744 6.12165 77.5744 7.69939C77.5539 9.2561 76.423 10.1607 75.1689 10.1607Z" fill="#3D3949"/>
<path d="M84.2563 7.1954L83.1872 6.92193C82.8171 6.81675 82.4676 6.64845 82.3442 6.35394C82.262 6.18565 82.262 5.99632 82.3237 5.76492C82.4265 5.36522 82.8788 5.09175 83.4134 5.09175C83.9685 5.09175 84.4619 5.38626 84.5442 5.93321H85.8806C85.7573 4.43961 84.6059 3.85059 83.3722 3.85059C82.0975 3.85059 80.9667 4.64998 80.8639 5.74388C80.7405 7.11126 81.4807 7.78443 82.7965 8.14205L83.7834 8.37345C84.318 8.49967 84.7498 8.77315 84.7498 9.29906C84.7292 9.84602 84.2975 10.2247 83.6601 10.2667C83.1872 10.2878 82.8171 10.2036 82.5087 10.0143C82.1592 9.84602 81.9741 9.48839 81.9124 9.17284H80.6377C80.6788 10.6875 82.0358 11.55 83.3311 11.55C84.832 11.55 86.1273 10.7085 86.1273 9.34114C86.1273 8.52071 85.7572 7.57406 84.2563 7.1954Z" fill="#3D3949"/>
<path d="M63.1002 1.2427L57.5078 6.52289L58.5564 7.6799L63.6143 2.88356L68.6927 7.65887L69.7413 6.50185L64.1488 1.2427C63.861 0.969229 63.4087 0.969229 63.1002 1.2427Z" fill="#AC4DFF"/>
</svg>
