<svg width="19" height="21" viewBox="0 0 19 21" fill="none" xmlns="http://www.w3.org/2000/svg">
<path d="M15.3356 9.17285H2.80135C1.81242 9.17285 1.01074 9.97453 1.01074 10.9635V17.2306C1.01074 18.2195 1.81242 19.0212 2.80135 19.0212H15.3356C16.3245 19.0212 17.1262 18.2195 17.1262 17.2306V10.9635C17.1262 9.97453 16.3245 9.17285 15.3356 9.17285Z" stroke="#A9A9A9" stroke-width="2" stroke-linecap="round" stroke-linejoin="round"/>
<path d="M4.5918 9.17296V5.59175C4.5918 4.4045 5.06343 3.26589 5.90294 2.42638C6.74245 1.58687 7.88107 1.11523 9.06831 1.11523C10.2556 1.11523 11.3942 1.58687 12.2337 2.42638C13.0732 3.26589 13.5448 4.4045 13.5448 5.59175V9.17296" stroke="#A9A9A9" stroke-width="2" stroke-linecap="round" stroke-linejoin="round"/>
</svg>
