<svg xmlns="http://www.w3.org/2000/svg" viewBox="0 0 27.01 28.73"><title>Asset 1</title><g id="Layer_2" data-name="Layer 2"><g id="Layer_1-2" data-name="Layer 1"><polygon points="0 3.47 0 21.02 11.1 28.73 22.34 20.95 22.34 3.31 0 3.47" style="fill:#ac4dff"/><path d="M14.62,27.85a.73.73,0,0,1-.4-.13l-11.54-8a.7.7,0,0,1-.3-.58V.87a.7.7,0,0,1,.7-.7L26.3,0h0a.7.7,0,0,1,.49.2A.71.71,0,0,1,27,.71V19.05a.7.7,0,0,1-.3.58L15,27.72A.74.74,0,0,1,14.62,27.85ZM3.79,18.75l10.84,7.53,11-7.6V1.42L3.79,1.57Z" style="fill:#1e0d3f"/><path d="M12.81,16.79a.67.67,0,0,1-.46-.17L9.07,13.73a.71.71,0,0,1-.06-1,.7.7,0,0,1,1-.06l2.78,2.45L20.66,7a.7.7,0,1,1,1,1l-8.35,8.59A.71.71,0,0,1,12.81,16.79Z" style="fill:#1e0d3f"/></g></g></svg>