<svg xmlns="http://www.w3.org/2000/svg" viewBox="0 0 37.23 26.35"><title>Asset 8</title><g id="Layer_2" data-name="Layer 2"><g id="Layer_1-2" data-name="Layer 1"><rect y="3.92" width="33.58" height="22.43" transform="translate(33.58 30.26) rotate(180)" style="fill:#dfd3c4"/><path d="M36.63,23.63H3.05a.59.59,0,0,1-.59-.6V.6A.59.59,0,0,1,3.05,0H36.63a.6.6,0,0,1,.6.6V23A.6.6,0,0,1,36.63,23.63Zm-33-1.2H36V1.2H3.65Z" style="fill:#1e0d3f"/><path d="M6,22a.57.57,0,0,1-.25-.06.6.6,0,0,1-.3-.79c.74-1.61,3.35-7,6-8.21a4,4,0,0,1,1.92-.42,4.13,4.13,0,0,1,2.87,1.75,44.93,44.93,0,0,1,4.13,6.2.61.61,0,0,1-.23.82.6.6,0,0,1-.82-.23,43,43,0,0,0-4-6,3.05,3.05,0,0,0-2-1.31A2.65,2.65,0,0,0,12,14c-1.81.86-4,4.64-5.4,7.63A.61.61,0,0,1,6,22Z" style="fill:#1e0d3f"/><path d="M12.33,13.68a3,3,0,1,1,3-3A3,3,0,0,1,12.33,13.68Zm0-4.74a1.78,1.78,0,1,0,1.78,1.77A1.77,1.77,0,0,0,12.33,8.94Z" style="fill:#1e0d3f"/><path d="M20.25,20.7a.54.54,0,0,1-.25-.06.59.59,0,0,1-.3-.79c.74-1.61,3.35-7,6-8.21a4,4,0,0,1,1.92-.42A4.16,4.16,0,0,1,30.47,13a43.52,43.52,0,0,1,4.13,6.21.6.6,0,0,1-1,.58,43.3,43.3,0,0,0-4-6,3.09,3.09,0,0,0-2-1.31,2.76,2.76,0,0,0-1.33.3c-1.81.86-4,4.64-5.41,7.63A.6.6,0,0,1,20.25,20.7Z" style="fill:#1e0d3f"/><path d="M27.67,12a3,3,0,1,1,3-3A3,3,0,0,1,27.67,12Zm0-4.75A1.78,1.78,0,1,0,29.44,9,1.77,1.77,0,0,0,27.67,7.24Z" style="fill:#1e0d3f"/><path d="M15.24,14.63a.74.74,0,0,1-.25-.05.6.6,0,0,1-.29-.8c.2-.45,2.07-4.43,4-5.34a2.75,2.75,0,0,1,1.36-.29,2.94,2.94,0,0,1,2,1.21,27.05,27.05,0,0,1,2.61,3.89.61.61,0,0,1-.23.82.6.6,0,0,1-.82-.23,24.6,24.6,0,0,0-2.49-3.71A1.78,1.78,0,0,0,20,9.34a1.67,1.67,0,0,0-.77.18c-1.31.62-2.92,3.65-3.43,4.76A.6.6,0,0,1,15.24,14.63Z" style="fill:#1e0d3f"/><path d="M19.84,8.78a2.41,2.41,0,1,1,2.41-2.41A2.41,2.41,0,0,1,19.84,8.78Zm0-3.62a1.21,1.21,0,1,0,1.21,1.21A1.21,1.21,0,0,0,19.84,5.16Z" style="fill:#1e0d3f"/></g></g></svg>