<svg width="19" height="21" viewBox="0 0 19 21" fill="none" xmlns="http://www.w3.org/2000/svg">
<path d="M17.1545 13.6476V6.48522C17.1542 6.17121 17.0713 5.86281 16.9142 5.59096C16.757 5.3191 16.5312 5.09335 16.2592 4.93634L9.9921 1.35513C9.71989 1.19797 9.41111 1.11523 9.09679 1.11523C8.78248 1.11523 8.4737 1.19797 8.20149 1.35513L1.93437 4.93634C1.66243 5.09335 1.43656 5.3191 1.27942 5.59096C1.12227 5.86281 1.03938 6.17121 1.03906 6.48522V13.6476C1.03938 13.9617 1.12227 14.2701 1.27942 14.5419C1.43656 14.8138 1.66243 15.0395 1.93437 15.1965L8.20149 18.7777C8.4737 18.9349 8.78248 19.0176 9.09679 19.0176C9.41111 19.0176 9.71989 18.9349 9.9921 18.7777L16.2592 15.1965C16.5312 15.0395 16.757 14.8138 16.9142 14.5419C17.0713 14.2701 17.1542 13.9617 17.1545 13.6476Z" stroke="#A9A9A9" stroke-width="2" stroke-linecap="round" stroke-linejoin="round"/>
<path d="M1.28125 5.5542L9.09725 10.0755L16.9132 5.5542" stroke="#A9A9A9" stroke-width="2" stroke-linecap="round" stroke-linejoin="round"/>
<path d="M9.09766 19.0916V10.0669" stroke="#A9A9A9" stroke-width="2" stroke-linecap="round" stroke-linejoin="round"/>
</svg>
