<svg xmlns="http://www.w3.org/2000/svg" viewBox="0 0 25.64 28.54"><title>Asset 6</title><g id="Layer_2" data-name="Layer 2"><g id="Layer_1-2" data-name="Layer 1"><polygon points="22.52 28.38 22.52 10.68 11.33 2.91 0 10.75 0 28.54 22.52 28.38" style="fill:#ac4dff"/><path d="M2.43,27A.66.66,0,0,1,2,26.8a.67.67,0,0,1-.21-.48V8.53A.68.68,0,0,1,2,8L13.37.12a.69.69,0,0,1,.78,0L25.34,7.9a.68.68,0,0,1,.3.56v17.7a.69.69,0,0,1-.68.68L2.43,27ZM25,26.16h0ZM3.11,8.89V25.63l21.16-.15V8.82L13.76,1.52Z" style="fill:#1e0d3f"/><path d="M6.36,25.06A.67.67,0,0,1,6.08,25a.68.68,0,0,1-.34-.91c.84-1.84,3.82-7.94,6.82-9.36a4.41,4.41,0,0,1,2.2-.48,4.74,4.74,0,0,1,3.26,2,49.14,49.14,0,0,1,4.71,7.07.68.68,0,1,1-1.19.67A49.4,49.4,0,0,0,17,17.12a3.41,3.41,0,0,0-2.3-1.5,3.12,3.12,0,0,0-1.52.35c-2.06,1-4.61,5.29-6.17,8.69A.68.68,0,0,1,6.36,25.06Z" style="fill:#1e0d3f"/><path d="M14,14.69a3.39,3.39,0,1,1,3.39-3.39A3.39,3.39,0,0,1,14,14.69Zm0-5.41a2,2,0,1,0,2,2A2,2,0,0,0,14,9.28Z" style="fill:#1e0d3f"/></g></g></svg>
