<svg id="Capa_1" enable-background="new 0 0 512 512" height="512" viewBox="0 0 512 512" width="512"
     xmlns="http://www.w3.org/2000/svg">
  <g fill="#AC4DFF">
    <path d="m437.02 74.98c-48.353-48.351-112.64-74.98-181.02-74.98s-132.667 26.629-181.02 74.98c-48.351 48.353-74.98 112.64-74.98 181.02s26.629 132.667 74.98 181.02c48.353 48.351 112.64 74.98 181.02 74.98s132.667-26.629 181.02-74.98c48.351-48.353 74.98-112.64 74.98-181.02s-26.629-132.667-74.98-181.02zm-324.281 166.019h-82.237c1.122-17.235 4.164-34.097 9.042-50.333h70.089c-1.793 6.622-2.74 13.518-2.74 20.563 0 10.381 2.012 20.451 5.846 29.77zm-82.237 30h103.764l50.333 50.333h-145.056c-4.877-16.236-7.919-33.098-9.041-50.333zm120.512-25.678c-18.798-18.799-18.798-49.386 0-68.185 9.4-9.399 21.744-14.099 34.092-14.099 12.345 0 24.694 4.701 34.092 14.099l36.802 36.803 36.803-36.803c18.799-18.797 49.385-18.798 68.184.001 9.106 9.106 14.121 21.213 14.121 34.092 0 12.878-5.015 24.985-14.121 34.092l-104.987 104.987zm226.788 25.61 103.697.059c-1.122 17.238-4.164 34.103-9.042 50.342h-145.056zm21.435-29.988c6.546-15.996 7.562-33.731 3.081-50.277h70.139c4.876 16.233 7.918 33.092 9.041 50.324zm-1.028-160.61h-284.418c40.12-32.604 89.799-50.333 142.209-50.333s102.089 17.729 142.209 50.333zm-315.003 30h345.587c13.051 15.429 23.853 32.34 32.233 50.333h-74.489c-1.377-1.622-2.809-3.212-4.339-4.742-30.496-30.496-80.115-30.492-110.609 0l-15.589 15.59-15.59-15.59c-30.494-30.496-80.113-30.495-110.609.001-1.526 1.526-2.963 3.115-4.345 4.741h-74.483c8.38-17.993 19.182-34.904 32.233-50.333zm30.583 321.333h284.421c-40.12 32.605-89.8 50.334-142.21 50.334s-102.09-17.729-142.211-50.334zm315.006-30h-345.59c-13.051-15.43-23.853-32.34-32.233-50.334h163.626l41.402 41.401 41.401-41.401h163.626c-8.379 17.994-19.181 34.904-32.232 50.334z"/>
  </g>
</svg>
