<svg xmlns="http://www.w3.org/2000/svg" viewBox="0 0 23.12 38.57"><title>Asset 7</title><g id="Layer_2" data-name="Layer 2"><g id="Layer_1-2" data-name="Layer 1"><polygon points="0 28 0 10.6 10.44 1.93 19.82 11.17 20.16 27.97 0 28" style="fill:#e9de88"/><path d="M16.61,26.43H2.79a.66.66,0,0,1-.65-.66V9a.68.68,0,0,1,.19-.47L10.7.19a.67.67,0,0,1,.93,0,.66.66,0,0,1,0,.92L3.44,9.3V25.12H16.61a.65.65,0,0,1,.65.65A.66.66,0,0,1,16.61,26.43Z" style="fill:#1e0d3f"/><path d="M12,38.57a.7.7,0,0,1-.46-.19.66.66,0,0,1,0-.92L21.82,27.18V9.71L16.57,4.46a.64.64,0,0,1,0-.92.66.66,0,0,1,.92,0L22.93,9a.68.68,0,0,1,.19.46v18a.66.66,0,0,1-.19.46L12.46,38.38A.66.66,0,0,1,12,38.57Z" style="fill:#1e0d3f"/><circle cx="12.59" cy="15.48" r="1.91" style="fill:#1e0d3f"/></g></g></svg>