<svg width="17" height="21" viewBox="0 0 17 21" fill="none" xmlns="http://www.w3.org/2000/svg">
<path d="M10.2909 1.11523H3.1285C2.6536 1.11523 2.19815 1.30389 1.86235 1.63969C1.52654 1.97549 1.33789 2.43094 1.33789 2.90584V17.2307C1.33789 17.7056 1.52654 18.161 1.86235 18.4968C2.19815 18.8326 2.6536 19.0213 3.1285 19.0213H13.8721C14.347 19.0213 14.8025 18.8326 15.1383 18.4968C15.4741 18.161 15.6627 17.7056 15.6627 17.2307V6.48705L10.2909 1.11523Z" stroke="#A9A9A9" stroke-width="2" stroke-linecap="round" stroke-linejoin="round"/>
<path d="M10.291 1.11523V6.48705H15.6628" stroke="#A9A9A9" stroke-width="2" stroke-linecap="round" stroke-linejoin="round"/>
<path d="M12.0823 10.9634H4.91992" stroke="#A9A9A9" stroke-width="2" stroke-linecap="round" stroke-linejoin="round"/>
<path d="M12.0823 14.5449H4.91992" stroke="#A9A9A9" stroke-width="2" stroke-linecap="round" stroke-linejoin="round"/>
<path d="M6.71053 7.38232H5.81523H4.91992" stroke="#A9A9A9" stroke-width="2" stroke-linecap="round" stroke-linejoin="round"/>
</svg>
