<svg xmlns="http://www.w3.org/2000/svg" viewBox="0 0 35.18 25.75"><title>Asset 3</title><g id="Layer_2" data-name="Layer 2"><g id="Layer_1-2" data-name="Layer 1"><rect y="3.6" width="29.99" height="22.15" rx="0.75" style="fill:#ac4dff"/><ellipse cx="19.68" cy="11.58" rx="11.65" ry="8.61" style="fill:none"/><path d="M34.68,23.15h-30a.5.5,0,0,1-.5-.5V.5a.5.5,0,0,1,.5-.5h30a.5.5,0,0,1,.5.5V22.65A.5.5,0,0,1,34.68,23.15Zm-29.49-1h29V1h-29Z" style="fill:#1e0d3f"/><path d="M19.68,12.08a.51.51,0,0,1-.29-.1L4.39.9A.51.51,0,0,1,4.28.2.5.5,0,0,1,5,.1L19.68,11,34.38.1a.5.5,0,0,1,.7.1.5.5,0,0,1-.1.7L20,12A.54.54,0,0,1,19.68,12.08Z" style="fill:#1e0d3f"/></g></g></svg>