<svg width="16" height="16" viewBox="0 0 16 16" fill="none" xmlns="http://www.w3.org/2000/svg">
<g id="remove_red_eye_24px">
<path id="icon/image/remove_red_eye_24px" fill-rule="evenodd" clip-rule="evenodd" d="M7.99984 3C4.6665 3 1.81984 5.07333 0.666504 8C1.81984 10.9267 4.6665 13 7.99984 13C11.3332 13 14.1798 10.9267 15.3332 8C14.1798 5.07333 11.3332 3 7.99984 3ZM7.99984 11.3333C6.15984 11.3333 4.6665 9.83999 4.6665 7.99999C4.6665 6.15999 6.15984 4.66666 7.99984 4.66666C9.83984 4.66666 11.3332 6.15999 11.3332 7.99999C11.3332 9.83999 9.83984 11.3333 7.99984 11.3333ZM5.99987 8C5.99987 6.89333 6.89321 6 7.99987 6C9.10654 6 9.99988 6.89333 9.99988 8C9.99988 9.10667 9.10654 10 7.99987 10C6.89321 10 5.99987 9.10667 5.99987 8Z" fill="black" fill-opacity="0.54"/>
</g>
</svg>
